<svg width="358" height="695" viewBox="0 0 358 695" fill="none" xmlns="http://www.w3.org/2000/svg">
<g opacity="0.95">
<path d="M160.115 182.131L135.598 214.154H1.00072V0.50036H160.115V182.131Z" fill="#FFBFC3"/>
<path d="M160.115 182.131L135.598 214.154M160.115 182.131H135.598V214.154M160.115 182.131V0.50036H1.00072V214.154H135.598" stroke="#2A7479"/>
<path d="M160.115 422.304L135.598 454.327H1.00072V240.673H160.115V422.304Z" fill="#FFBFC3"/>
<path d="M160.115 422.304L135.598 454.327M160.115 422.304H135.598V454.327M160.115 422.304V240.673H1.00072V454.327H135.598" stroke="#2A7479"/>
<path d="M159.615 662.477L135.097 694.5H0.50036V480.846H159.615V662.477Z" fill="#FFBFC3"/>
<path d="M159.615 662.477L135.097 694.5M159.615 662.477H135.097V694.5M159.615 662.477V480.846H0.50036V694.5H135.097" stroke="#2A7479"/>
<path d="M357.257 182.131L332.739 214.154H198.143V0.50036H357.257V182.131Z" fill="#FFBFC3"/>
<path d="M357.257 182.131L332.739 214.154M357.257 182.131H332.739V214.154M357.257 182.131V0.50036H198.143V214.154H332.739" stroke="#2A7479"/>
<path d="M356.757 422.304L332.239 454.327H197.642V240.673H356.757V422.304Z" fill="#FFBFC3"/>
<path d="M356.757 422.304L332.239 454.327M356.757 422.304H332.239V454.327M356.757 422.304V240.673H197.642V454.327H332.239" stroke="#2A7479"/>
<path d="M356.256 662.477L331.739 694.5H197.142V480.846H356.256V662.477Z" fill="#FFBFC3"/>
<path d="M356.256 662.477L331.739 694.5M356.256 662.477H331.739V694.5M356.256 662.477V480.846H197.142V694.5H331.739" stroke="#2A7479"/>
</g>
</svg>
